<svg xmlns="http://www.w3.org/2000/svg" width="188.999" height="40" viewBox="0 0 188.999 40">
    <defs>
        <linearGradient id="xtmhny4l0a" x2="1.01" y2="1" gradientUnits="objectBoundingBox">
            <stop offset="0" stop-color="#9fccfa"/>
            <stop offset="1" stop-color="#0974f1"/>
        </linearGradient>
        <linearGradient id="2oimbwdx4b" y1="-.221" x2="1" y2="1" gradientUnits="objectBoundingBox">
            <stop offset="0" stop-color="#a5cefc"/>
            <stop offset="1" stop-color="#82bafa"/>
        </linearGradient>
        <linearGradient id="bbl4pyw8dc" y1="-.572" x2="1" y2="1" gradientUnits="objectBoundingBox">
            <stop offset="0" stop-color="#dbebfe"/>
            <stop offset="1" stop-color="#b7d8fc"/>
        </linearGradient>
    </defs>
    <g data-name="Logo">
        <path data-name="Path 3054" d="M170 56.995V42.388h3.857v1.121a5.955 5.955 0 0 1 6.39-.827 5.063 5.063 0 0 1 1.858 1.612 6.032 6.032 0 0 1 2.14-1.626 6.546 6.546 0 0 1 2.731-.561 5.553 5.553 0 0 1 2.885.743 5.314 5.314 0 0 1 1.971 2.047 6.148 6.148 0 0 1 .718 3.014v9.084h-3.857V48.5a3.246 3.246 0 0 0-.746-2.257 2.577 2.577 0 0 0-2.013-.827 3.576 3.576 0 0 0-1.591.35 3.13 3.13 0 0 0-1.225 1.107l.056.5a4.867 4.867 0 0 1 .028.533v9.084h-3.857V48.5a3.248 3.248 0 0 0-.746-2.257 2.577 2.577 0 0 0-2.013-.827 3.513 3.513 0 0 0-1.563.336 3.077 3.077 0 0 0-1.168 1.009v10.234z" transform="translate(-108.301 -26.776)" style="fill:#122632"/>
        <path data-name="Path 3055" d="M246.015 57.324a7.885 7.885 0 0 1-3.97-1.009 7.655 7.655 0 0 1-2.815-2.734 7.6 7.6 0 0 1 0-7.682 7.548 7.548 0 0 1 2.815-2.719 8.413 8.413 0 0 1 7.939 0 7.549 7.549 0 0 1 2.816 2.72 7.649 7.649 0 0 1 .014 7.682 7.545 7.545 0 0 1-2.8 2.734 7.941 7.941 0 0 1-4 1.009m0-3.336a3.877 3.877 0 0 0 2.083-.575 4.158 4.158 0 0 0 1.464-1.528 4.335 4.335 0 0 0 .535-2.159 4.216 4.216 0 0 0-2.013-3.645 3.831 3.831 0 0 0-2.041-.56 3.952 3.952 0 0 0-2.083.56A4.063 4.063 0 0 0 242.5 47.6a4.278 4.278 0 0 0-.535 2.131 4.331 4.331 0 0 0 .535 2.159 4.194 4.194 0 0 0 1.45 1.528 3.8 3.8 0 0 0 2.069.575" transform="translate(-151.688 -26.825)" style="fill:#122632"/>
        <path data-name="Path 3056" d="M287.726 47.51V27.884l3.856-.645v6.841a6.453 6.453 0 0 1 4.11-1.374 7.027 7.027 0 0 1 3.772.981 7.594 7.594 0 0 1 2.688 2.706 7.4 7.4 0 0 1 1 3.827 7.268 7.268 0 0 1-1.013 3.8 7.523 7.523 0 0 1-6.559 3.687 7.308 7.308 0 0 1-2.14-.309 7.432 7.432 0 0 1-1.914-.9v1.012zm7.347-3.056a4.37 4.37 0 0 0 2.182-.547 4.01 4.01 0 0 0 1.534-1.528 4.26 4.26 0 0 0 .563-2.159 4.135 4.135 0 0 0-2.1-3.673 4.286 4.286 0 0 0-2.182-.56 5.392 5.392 0 0 0-1.971.35 3.868 3.868 0 0 0-1.52 1.051v5.692a4.287 4.287 0 0 0 1.535 1.009 5.228 5.228 0 0 0 1.956.365" transform="translate(-183.208 -17.291)" style="fill:#122632"/>
        <path data-name="Path 3057" d="M337.988 30.374a2.206 2.206 0 0 1-2.2-2.215 2.053 2.053 0 0 1 .647-1.528 2.233 2.233 0 0 1 3.111 0 2.077 2.077 0 0 1 .633 1.528 2.156 2.156 0 0 1-.633 1.57 2.1 2.1 0 0 1-1.562.645m-1.914 1.738h3.857v14.607h-3.857z" transform="translate(-213.792 -16.5)" style="fill:#122632"/>
        <path data-name="Path 3058" d="M355.451 47.51V27.883l3.857-.645V47.51z" transform="translate(-226.3 -17.291)" style="fill:#122632"/>
        <path data-name="Path 3059" d="M374.335 47.51V27.883l3.857-.645V47.51z" transform="translate(-238.316 -17.291)" style="fill:#122632"/>
        <path data-name="Path 3060" d="M394.642 30.374a2.206 2.206 0 0 1-2.2-2.215 2.053 2.053 0 0 1 .647-1.528 2.233 2.233 0 0 1 3.111 0 2.078 2.078 0 0 1 .634 1.528 2.157 2.157 0 0 1-.634 1.57 2.1 2.1 0 0 1-1.562.645m-1.914 1.738h3.857v14.607h-3.857z" transform="translate(-249.84 -16.5)" style="fill:#122632"/>
        <path data-name="Path 3061" d="M417.644 57.769a5.97 5.97 0 0 1-3-.743 5.237 5.237 0 0 1-2.041-2.075 6.15 6.15 0 0 1-.732-3.014v-9.056h3.829v8.5a2.86 2.86 0 0 0 3.069 3.084 3.769 3.769 0 0 0 1.731-.392A3.636 3.636 0 0 0 421.782 53V42.881h3.857v14.608h-3.857v-1.178a6.113 6.113 0 0 1-4.138 1.458" transform="translate(-262.202 -27.269)" style="fill:#122632"/>
        <path data-name="Path 3062" d="M458 56.995V42.388h3.857v1.121a5.955 5.955 0 0 1 6.39-.827 5.062 5.062 0 0 1 1.858 1.612 6.032 6.032 0 0 1 2.14-1.626 6.546 6.546 0 0 1 2.731-.561 5.553 5.553 0 0 1 2.885.743 5.314 5.314 0 0 1 1.971 2.047 6.148 6.148 0 0 1 .718 3.014v9.084h-3.857V48.5a3.246 3.246 0 0 0-.746-2.257 2.577 2.577 0 0 0-2.013-.827 3.575 3.575 0 0 0-1.59.35 3.129 3.129 0 0 0-1.225 1.107l.056.5a4.86 4.86 0 0 1 .028.533v9.084h-3.857V48.5a3.248 3.248 0 0 0-.746-2.257 2.577 2.577 0 0 0-2.013-.827 3.513 3.513 0 0 0-1.562.336 3.077 3.077 0 0 0-1.168 1.009v10.234z" transform="translate(-291.552 -26.776)" style="fill:#122632"/>
        <g>
            <path data-name="Path 3" d="M165.445 245c14.122 0 25.445 22.871 25.445 36.31s-11.323-14.159-25.445-14.159S140 294.746 140 281.31 151.323 245 165.445 245z" transform="translate(-140 -245)" style="fill:url(#xtmhny4l0a)"/>
            <path data-name="Path 2" d="M165.445 265c14.122 0 25.445 18.584 25.445 29.663s-11.323-11.483-25.445-11.483S140 305.724 140 294.66 151.323 265 165.445 265z" transform="translate(-140 -257.728)" style="fill:url(#2oimbwdx4b)"/>
            <path data-name="Path 1" d="M165.445 285c14.122 0 25.445 14.544 25.445 23.086s-11.323-8.778-25.445-8.778S140 316.634 140 308.086 151.323 285 165.445 285z" transform="translate(-140 -270.456)" style="fill:url(#bbl4pyw8dc)"/>
        </g>
    </g>
</svg>
